<svg xmlns="http://www.w3.org/2000/svg" viewBox="0 0 500 500">
  <g id="N-DIMENSIONS" transform="matrix(1, 0, 0, 1, 21.376438, 1.590217)"></g>
  <g transform="matrix(1.245507, 0, 0, 1.248871, -242.828751, -88.638649)" style="">
    <g id="_x32_D_x24_AG-DETAILS" transform="matrix(1, 0, 0, 1, 21.376459, 1.590207)">
      <g id="POLYLINE_00000095322362227849323290000001184252897093485749_">
        <line fill="none" stroke="#00B9D2" stroke-width="1.5" stroke-linecap="round" stroke-linejoin="round" stroke-miterlimit="10" x1="422.495" y1="450.865" x2="422.495" y2="448.364"></line>
      </g>
      <g id="POLYLINE_00000073707268708491149930000007395520880278340749_">
        <line fill="none" stroke="#00B9D2" stroke-width="1.5" stroke-linecap="round" stroke-linejoin="round" stroke-miterlimit="10" x1="418.729" y1="448.364" x2="418.729" y2="450.865"></line>
      </g>
      <g id="POLYLINE_00000155132090276183389690000003296743718840825781_">
        <line fill="none" stroke="#00B9D2" stroke-width="1.5" stroke-linecap="round" stroke-linejoin="round" stroke-miterlimit="10" x1="312.901" y1="86.518" x2="312.901" y2="84.017"></line>
      </g>
      <g id="POLYLINE_00000116925834075045520980000005241941308559993014_">
        <line fill="none" stroke="#00B9D2" stroke-width="1.5" stroke-linecap="round" stroke-linejoin="round" stroke-miterlimit="10" x1="309.134" y1="84.017" x2="309.134" y2="86.518"></line>
      </g>
      <g id="POLYLINE_00000034799305353992492520000017307614201916400062_">
        <line fill="none" stroke="#00B9D2" stroke-width="1.5" stroke-linecap="round" stroke-linejoin="round" stroke-miterlimit="10" x1="276.315" y1="117.798" x2="278.816" y2="117.798"></line>
      </g>
      <g id="POLYLINE_00000137835175093416424180000014953979890660224657_">
        <line fill="none" stroke="#00B9D2" stroke-width="1.5" stroke-linecap="round" stroke-linejoin="round" stroke-miterlimit="10" x1="278.816" y1="121.565" x2="276.315" y2="121.565"></line>
      </g>
      <g id="POLYLINE_00000003076434380212846550000014268701371640021927_">
        <line fill="none" stroke="#00B9D2" stroke-width="1.5" stroke-linecap="round" stroke-linejoin="round" stroke-miterlimit="10" x1="452.612" y1="117.798" x2="455.113" y2="117.798"></line>
      </g>
      <g id="POLYLINE_00000175301165569910780050000011058963187207460285_">
        <line fill="none" stroke="#00B9D2" stroke-width="1.5" stroke-linecap="round" stroke-linejoin="round" stroke-miterlimit="10" x1="455.113" y1="121.565" x2="452.612" y2="121.565"></line>
      </g>
      <g id="POLYLINE_00000147928405365211318900000010623005155061043641_">
        <line fill="none" stroke="#00B9D2" stroke-width="1.5" stroke-linecap="round" stroke-linejoin="round" stroke-miterlimit="10" x1="276.315" y1="417.084" x2="278.816" y2="417.084"></line>
      </g>
      <g id="POLYLINE_00000124161330563241248670000017256962315358697378_">
        <line fill="none" stroke="#00B9D2" stroke-width="1.5" stroke-linecap="round" stroke-linejoin="round" stroke-miterlimit="10" x1="278.816" y1="413.317" x2="276.315" y2="413.317"></line>
      </g>
      <g id="POLYLINE_00000180354663040840217880000016472667207230176660_">
        <line fill="none" stroke="#00B9D2" stroke-width="1.5" stroke-linecap="round" stroke-linejoin="round" stroke-miterlimit="10" x1="452.612" y1="417.084" x2="455.113" y2="417.084"></line>
      </g>
      <g id="POLYLINE_00000176726162339938533390000018022678017442457989_">
        <line fill="none" stroke="#00B9D2" stroke-width="1.5" stroke-linecap="round" stroke-linejoin="round" stroke-miterlimit="10" x1="455.113" y1="413.317" x2="452.612" y2="413.317"></line>
      </g>
      <g id="POLYLINE_00000111877345488805164750000017680976645589431481_">
        <path fill="none" stroke="#00B9D2" stroke-width="1.5" stroke-linecap="round" stroke-linejoin="round" stroke-miterlimit="10" d="
			M338.457,86.518c9.619,0.726,18.22,6.701,22.258,15.462c1.041,2.246,1.776,4.661,2.161,7.107c0.164,1.054,0.274,2.177,0.311,3.243
			c-0.006,0.244,0.026,0.691,0.016,0.931c0,0,0,30.739,0,30.739c-0.001,1.685-0.164,3.408-0.482,5.063
			c-1.011,5.307-3.68,10.287-7.539,14.068c-4.066,4.012-9.451,6.663-15.111,7.438c-0.894,0.122-1.865,0.209-2.767,0.239
			c-0.233-0.006-0.694,0.026-0.926,0.016c0,0-30.739,0-30.739,0l-0.463-0.004c-1.84-0.032-3.712-0.259-5.506-0.669
			c-4.513-1.025-8.755-3.252-12.163-6.383c-5.498-5.008-8.719-12.33-8.692-19.768"></path>
      </g>
      <g id="POLYLINE_00000078724313561117439020000007404811761126127009_">
        <path fill="none" stroke="#00B9D2" stroke-width="1.5" stroke-linecap="round" stroke-linejoin="round" stroke-miterlimit="10" d="
			M344.17,108.434c0.001-0.465-0.158-0.929-0.445-1.295c-0.285-0.368-0.695-0.636-1.147-0.749c-1.323-0.335-2.615,0.662-2.627,2.026
			c-0.012,1.38,1.289,2.402,2.627,2.063c0.451-0.113,0.862-0.381,1.147-0.749C344.012,109.363,344.171,108.9,344.17,108.434z"></path>
      </g>
      <g id="POLYLINE_00000016764813825348607860000008098258221782351525_">
        <path fill="none" stroke="#00B9D2" stroke-width="1.5" stroke-linecap="round" stroke-linejoin="round" stroke-miterlimit="10" d="
			M348.671,108.434c0.009-3.008-2.07-5.679-4.988-6.408c-4.155-1.046-8.19,2.067-8.233,6.351c-0.031,4.332,4.032,7.522,8.233,6.466
			C346.601,114.113,348.68,111.442,348.671,108.434z"></path>
      </g>
      <g id="POLYLINE_00000061470199997701073160000006156313350635156118_">
        <path fill="none" stroke="#00B9D2" stroke-width="1.5" stroke-linecap="round" stroke-linejoin="round" stroke-miterlimit="10" d="
			M337.004,135.872c3.985-0.011,7.517,2.738,8.484,6.604c1.398,5.566-2.823,10.939-8.561,10.901
			c-5.674-0.059-9.792-5.397-8.408-10.901C329.487,138.61,333.018,135.861,337.004,135.872z"></path>
      </g>
      <g id="POLYLINE_00000129195694209289385390000006611388161498173627_">
        <path fill="none" stroke="#00B9D2" stroke-width="1.5" stroke-linecap="round" stroke-linejoin="round" stroke-miterlimit="10" d="
			M313.767,112.636c0.011-3.985-2.738-7.517-6.604-8.485c-5.566-1.398-10.939,2.823-10.901,8.561
			c0.059,5.674,5.397,9.792,10.901,8.408C311.029,120.152,313.778,116.621,313.767,112.636z"></path>
      </g>
      <g id="POLYLINE_00000167361673286339900010000006881024924358515841_">
        <path fill="none" stroke="#00B9D2" stroke-width="1.5" stroke-linecap="round" stroke-linejoin="round" stroke-miterlimit="10" d="
			M365.629,250.429c1.418,0.11,2.84-0.29,4.082-0.96c1.725-0.923,3.129-2.388,4.064-4.099c0.965-1.745,1.487-3.776,1.265-5.771
			c-1.341,0.061-2.643,0.511-3.825,1.131c-1.571,0.827-2.952,2.03-3.921,3.523C366.113,246.059,365.349,248.254,365.629,250.429z"></path>
      </g>
      <g id="POLYLINE_00000064322893469796467850000009514683973480772781_">
        <path fill="none" stroke="#00B9D2" stroke-width="1.5" stroke-linecap="round" stroke-linejoin="round" stroke-miterlimit="10" d="
			M378.512,264.564c-0.018-1.547,0.324-3.101,1.012-4.488c0.905-1.82,2.343-3.377,4.066-4.452c-0.77-1.13-1.762-2.113-2.909-2.859
			c-1.687-1.097-3.682-1.705-5.688-1.802c-1.394-0.142-2.797,0.14-4.119,0.568c-1.251,0.389-2.738,1.097-4,1.451
			c-0.313,0.082-0.637,0.145-0.962,0.133c-0.662-0.029-1.303-0.259-1.921-0.484l-1.93-0.75c-1-0.371-2.04-0.692-3.107-0.782
			c-1.155-0.085-2.33,0.067-3.445,0.369c-2.319,0.637-4.405,2.051-5.907,3.923c-1.049,1.299-1.816,2.822-2.304,4.416
			c-1.917,6.315,0.136,14.151,3.46,19.683c0.907,1.449,1.928,2.888,3.036,4.191c1.034,1.177,2.254,2.315,3.797,2.748
			c0.926,0.262,1.915,0.165,2.838-0.066c0.768-0.185,1.792-0.657,2.528-0.959c1.681-0.708,3.514-0.929,5.311-0.594
			c1.012,0.179,2.069,0.663,3.011,1.067c0.546,0.228,1.115,0.427,1.698,0.535c0.838,0.154,1.715,0.17,2.546-0.034
			c2.365-0.595,3.946-2.673,5.305-4.559c1.631-2.239,2.99-4.724,3.866-7.355l0.126-0.396l-0.082-0.034
			c-1.976-0.879-3.696-2.37-4.811-4.226C378.979,268.237,378.522,266.395,378.512,264.564"></path>
      </g>
      <g id="POLYLINE_00000165921286281005326330000004698174263678820774_">
        <path fill="none" stroke="#00B9D2" stroke-width="1.5" stroke-linecap="round" stroke-linejoin="round" stroke-miterlimit="10" d="
			M427.606,448.364c8.467,0.02,16.508-4.374,21.058-11.52c1.471-2.297,2.57-4.853,3.222-7.502c0.444-1.808,0.691-3.691,0.723-5.553
			c0.083-1.024-0.047-311.635,0-312.696c0,0-0.011-0.432-0.011-0.432l-0.019-0.431l-0.026-0.431
			c-0.129-1.854-0.471-3.728-1.009-5.508c-2.072-6.935-7.232-12.765-13.872-15.658c-2.365-1.039-4.911-1.716-7.481-1.981
			c-0.693-0.058-1.458-0.128-2.154-0.13c-0.314-0.263-123.843,0.182-124.215-0.004c-0.837,0.01-1.751,0.041-2.585,0.135
			c-2.425,0.253-4.836,0.867-7.084,1.811c-4.247,1.775-7.988,4.757-10.663,8.503c-2.599,3.623-4.203,7.96-4.582,12.403
			c-0.053,0.701-0.097,1.455-0.093,2.156c0,0,0,311.833,0,311.833l0.004,0.432c0,0,0.011,0.431,0.011,0.431s0.019,0.431,0.019,0.431
			c0.042,0.68,0.105,1.471,0.205,2.148c0.237,1.697,0.656,3.408,1.237,5.02c1.02,2.837,2.568,5.504,4.53,7.794
			c2.054,2.401,4.581,4.418,7.38,5.885c2.543,1.334,5.334,2.232,8.179,2.626c0.836,0.106,1.737,0.201,2.579,0.223
			c0.222-0.009,0.643,0.027,0.863,0.015C303.823,448.364,427.606,448.364,427.606,448.364z"></path>
      </g>
    </g>
    <g id="_x32_D_x24_AG-DIGITAL" transform="matrix(1, 0, 0, 1, 21.376459, 1.590207)">
      <g id="POLYLINE_00000070812345578621701070000016190416078298570919_">
        <rect x="275.065" y="190.259" fill="none" stroke="#00B9D2" stroke-width="2.25" stroke-linecap="round" stroke-linejoin="round" stroke-miterlimit="10" width="1.25" height="45.125"></rect>
      </g>
      <g id="POLYLINE_00000124882215577730975480000018387462253413390239_">
        <rect x="455.113" y="181.607" fill="none" stroke="#00B9D2" stroke-width="2.25" stroke-linecap="round" stroke-linejoin="round" stroke-miterlimit="10" width="1.25" height="26.257"></rect>
      </g>
      <g id="POLYLINE_00000019662277615304372720000004223500901517158301_">
        <rect x="455.113" y="216.635" fill="none" stroke="#00B9D2" stroke-width="2.25" stroke-linecap="round" stroke-linejoin="round" stroke-miterlimit="10" width="1.25" height="26.257"></rect>
      </g>
      <g id="POLYLINE_00000021816751070277069050000012612487001281499036_">
        <rect x="455.113" y="154.694" fill="none" stroke="#00B9D2" stroke-width="2.25" stroke-linecap="round" stroke-linejoin="round" stroke-miterlimit="10" width="1.25" height="13.754"></rect>
      </g>
      <g id="POLYLINE_00000141441470433244977870000015138041313944235709_">
        <path fill="none" stroke="#00B9D2" stroke-width="2.25" stroke-linecap="round" stroke-linejoin="round" stroke-miterlimit="10" d="
			M350.016,108.434c0.01-3.622-2.488-6.832-6.002-7.712c-5.058-1.271-9.943,2.565-9.907,7.781c0.054,5.157,4.906,8.9,9.908,7.642
			C347.527,115.266,350.026,112.056,350.016,108.434z"></path>
      </g>
      <g id="POLYLINE_00000088091785749340418900000002347747915253849751_">
        <path fill="none" stroke="#00B9D2" stroke-width="2.25" stroke-linecap="round" stroke-linejoin="round" stroke-miterlimit="10" d="
			M337.004,140.249c0.965-0.002,1.928,0.328,2.688,0.923c0.763,0.591,1.319,1.443,1.554,2.379c0.7,2.78-1.414,5.472-4.28,5.45
			c-2.835-0.027-4.897-2.702-4.204-5.45c0.235-0.936,0.791-1.788,1.554-2.379C335.076,140.577,336.038,140.246,337.004,140.249z"></path>
      </g>
      <g id="POLYLINE_00000114061381635512560340000001342666767408469643_">
        <path fill="none" stroke="#00B9D2" stroke-width="2.25" stroke-linecap="round" stroke-linejoin="round" stroke-miterlimit="10" d="
			M337.004,128.996c5.23-0.019,10.239,2.692,13.084,7.081c5.228,8.026,2.095,18.805-6.62,22.778c-4.046,1.86-8.883,1.86-12.929,0
			c-8.715-3.974-11.848-14.752-6.62-22.778C326.764,131.688,331.773,128.977,337.004,128.996z"></path>
      </g>
      <g id="POLYLINE_00000044139623233608979680000000922416145722054823_">
        <path fill="none" stroke="#00B9D2" stroke-width="2.25" stroke-linecap="round" stroke-linejoin="round" stroke-miterlimit="10" d="
			M337.004,125.87c6.283-0.02,12.281,3.226,15.701,8.497c6.273,9.635,2.516,22.562-7.944,27.334c-4.861,2.233-10.653,2.233-15.515,0
			c-10.46-4.772-14.217-17.699-7.944-27.334C324.723,129.096,330.721,125.85,337.004,125.87z"></path>
      </g>
      <g id="POLYLINE_00000018204255783335775620000010139978072701582760_">
        <path fill="none" stroke="#00B9D2" stroke-width="2.25" stroke-linecap="round" stroke-linejoin="round" stroke-miterlimit="10" d="
			M309.391,112.636c0.002-0.965-0.328-1.928-0.923-2.688c-0.591-0.763-1.443-1.319-2.379-1.554c-2.78-0.7-5.472,1.414-5.45,4.28
			c0.027,2.835,2.702,4.897,5.45,4.204c0.936-0.235,1.788-0.791,2.379-1.554C309.062,114.563,309.393,113.601,309.391,112.636z"></path>
      </g>
      <g id="POLYLINE_00000129925109993942780020000011155353329551486627_">
        <path fill="none" stroke="#00B9D2" stroke-width="2.25" stroke-linecap="round" stroke-linejoin="round" stroke-miterlimit="10" d="
			M320.644,112.636c0.019-5.23-2.692-10.239-7.081-13.084c-8.026-5.228-18.805-2.095-22.778,6.62c-1.86,4.046-1.86,8.883,0,12.929
			c3.974,8.715,14.752,11.848,22.778,6.62C317.952,122.875,320.663,117.866,320.644,112.636z"></path>
      </g>
      <g id="POLYLINE_00000137835348037360467010000011143808855571198110_">
        <path fill="none" stroke="#00B9D2" stroke-width="2.25" stroke-linecap="round" stroke-linejoin="round" stroke-miterlimit="10" d="
			M323.77,112.636c0.02-6.283-3.226-12.281-8.497-15.701c-9.635-6.273-22.562-2.516-27.334,7.944
			c-2.233,4.861-2.233,10.653,0,15.515c4.772,10.46,17.699,14.217,27.334,7.944C320.543,124.917,323.789,118.919,323.77,112.636z"></path>
      </g>
      <g id="POLYLINE_00000001642504768482076400000016652126579043943843_">
        <path fill="none" stroke="#00B9D2" stroke-width="2.25" stroke-linecap="round" stroke-linejoin="round" stroke-miterlimit="10" d="
			M305.64,166.506c-8.32,0.019-16.078-4.67-19.928-12.047c-1.444-2.748-2.312-5.81-2.524-8.906
			c-0.092-1.142-0.075-32.143-0.024-33.456c0.067-1.281,0.248-2.593,0.534-3.843c0.973-4.293,3.248-8.286,6.445-11.313
			c3.001-2.856,6.813-4.857,10.868-5.704c1.256-0.263,2.569-0.424,3.852-0.468c1.683,0.014,32.754-0.137,33.842,0.107
			c3.862,0.398,7.621,1.823,10.776,4.087c4.115,2.932,7.184,7.297,8.55,12.162c0.42,1.486,0.693,3.044,0.799,4.584
			c0.092,1.142,0.075,32.143,0.024,33.456c-0.127,2.451-0.663,4.898-1.573,7.178c-2.443,6.182-7.685,11.075-14.022,13.086
			c-1.594,0.511-3.272,0.85-4.941,0.994c-0.487,0.037-1.064,0.075-1.552,0.08c0,0-0.388,0.003-0.388,0.003
			S305.64,166.506,305.64,166.506z"></path>
      </g>
      <g id="POLYLINE_00000087411702726218881400000015484086743056071868_">
        <path fill="none" stroke="#00B9D2" stroke-width="2.25" stroke-linecap="round" stroke-linejoin="round" stroke-miterlimit="10" d="
			M305.137,147.722c0.001-0.639-0.217-1.277-0.611-1.78c-0.392-0.505-0.956-0.874-1.576-1.029c-1.84-0.465-3.625,0.937-3.61,2.835
			c0.017,1.876,1.79,3.244,3.61,2.784c0.62-0.156,1.184-0.524,1.576-1.029C304.919,148.998,305.138,148.361,305.137,147.722z"></path>
      </g>
      <g id="POLYLINE_00000165937890498322559000000000907748597960477333_">
        <path fill="none" stroke="#00B9D2" stroke-width="2.25" stroke-linecap="round" stroke-linejoin="round" stroke-miterlimit="10" d="
			M427.606,450.865c9.318,0.021,18.155-4.809,23.164-12.672c1.618-2.527,2.827-5.339,3.544-8.252
			c0.45-1.835,0.719-3.746,0.783-5.634c0.377-0.346-0.237-312.213,0.017-312.783c-0.001,0-0.005-0.475-0.005-0.475
			s-0.012-0.475-0.012-0.475s-0.02-0.474-0.02-0.474c-0.099-1.882-0.396-3.796-0.88-5.619c-2.017-7.705-7.464-14.305-14.655-17.74
			c-2.417-1.163-5.028-1.979-7.679-2.393c-1.076-0.161-2.219-0.282-3.307-0.315c0,0-0.475-0.012-0.475-0.012l-0.475-0.004
			c0,0-123.783,0-123.783,0s-0.475,0.004-0.475,0.004s-0.475,0.012-0.475,0.012s-0.474,0.02-0.474,0.02
			c-2.361,0.124-4.735,0.556-6.986,1.28c-4.368,1.399-8.383,3.92-11.538,7.25c-3.051,3.209-5.313,7.178-6.517,11.44
			c-0.644,2.276-0.998,4.661-1.038,7.026c-0.086,1.083,0.049,311.662,0,312.783c0,0,0.013,0.475,0.013,0.475s0.02,0.474,0.02,0.474
			s0.029,0.474,0.029,0.474c0.164,2.358,0.638,4.725,1.401,6.963c1.068,3.14,2.72,6.102,4.834,8.659
			c2.213,2.68,4.955,4.946,8.005,6.613c2.91,1.592,6.129,2.658,9.415,3.113c0.919,0.118,1.91,0.22,2.837,0.245
			c0,0,0.475,0.012,0.475,0.012s0.475,0.004,0.475,0.004S427.606,450.865,427.606,450.865z"></path>
      </g>
    </g>
    <g id="_x32_D_x24_AG-OUTLINE" transform="matrix(1, 0, 0, 1, 21.376459, 1.590207)">
      <g id="POLYLINE_00000081627909011430746620000005750372597782398090_">
        <path fill="none" stroke="#00B9D2" stroke-width="3" stroke-linecap="round" stroke-linejoin="round" stroke-miterlimit="10" d="
			M276.315,190.259c0,0,0-78.735,0-78.735c-0.011-0.153,0.011-0.458,0.007-0.611c0.02-0.82,0.075-1.675,0.169-2.49
			c0.146-1.282,0.386-2.578,0.711-3.827c0.866-3.332,2.37-6.507,4.4-9.287c2.636-3.619,6.177-6.579,10.207-8.531
			c2.793-1.357,5.827-2.238,8.913-2.587c1.882-0.271,6.426-0.152,8.412-0.175c0.306,0.002,118.495-0.003,118.776,0.002
			c0.263,0.005,0.658,0.012,0.922,0.026c3.499,0.155,6.975,0.99,10.162,2.441c3.315,1.506,6.332,3.685,8.803,6.358
			c2.685,2.899,4.737,6.393,5.96,10.15c0.473,1.454,0.832,2.968,1.056,4.481c0.151,1.027,0.251,2.094,0.284,3.132
			c0.028,4.469,0.012,38.828,0.015,44.087h1.25v13.754h-1.25v13.16h1.25v26.257h-1.25v8.771h1.25v26.257h-1.25
			c-0.002,0.306,0.003,180.489-0.002,180.77c0.012,0.275-0.024,0.649-0.026,0.922c-0.053,1.151-0.178,2.325-0.375,3.46
			c-0.674,3.915-2.215,7.685-4.475,10.951c-3.384,4.919-8.419,8.674-14.099,10.513c-2.552,0.833-5.236,1.29-7.92,1.349
			c-0.328,0.048-123.947-0.021-124.394,0.007c0,0-0.304-0.002-0.304-0.002s-0.306-0.005-0.306-0.005
			c-0.926-0.021-1.886-0.091-2.806-0.206c-2.861-0.357-5.676-1.173-8.285-2.4c-4.906-2.297-9.101-6.086-11.882-10.736
			c-1.909-3.177-3.168-6.753-3.669-10.426c-0.167-1.228-0.255-2.493-0.254-3.733c0,0,0-6.274,0-6.274s0-181.7,0-181.7h-1.25v-45.125
			H276.315z"></path>
      </g>
    </g>
  </g>
</svg>